<svg xmlns="http://www.w3.org/2000/svg" viewBox="0 0 220 261"><g fill="none" stroke-width="2"><path stroke="#7b6008" d="M189.83 182.86q-2.8 3.26-5.22 6.77-2.47 3.57-4.61 5c-7.67 5.11-22.3 4.89-21.68-8.08q.1-2.11.22-4.3" vector-effect="non-scaling-stroke"/><path stroke="#242425" d="M158.54 182.25q2.57-6.26 9.06-7.58.5-.1.69-.57 4.21-10.4 4.94-21.49c.55-8.38-2.77-13.28-7.02-19.91-1.78-2.78-8.63-9.37-12.04-8.93a.36.36 0 0 0-.12.68c19.21 10.32 22.29 30.2 13.24 48.71a1.28 1.24-85 0 1-.74.64q-5.87 1.96-8.55 7.74" vector-effect="non-scaling-stroke"/><path stroke="#7b6008" d="M158 181.54q-1.22-.1-1.79-1.04" vector-effect="non-scaling-stroke"/><path stroke="#7f8080" d="M156.21 180.5q1.95-8.44 1.7-17.04c-.47-15.84-3.04-30.63-14.29-42.65q-.35-.38-.42-.88-2.1-14.23-9.9-26.03" vector-effect="non-scaling-stroke"/><path stroke="#606060" d="M133.3 93.9c-.9-2.87-1.96-8.22-4.3-9.94" vector-effect="non-scaling-stroke"/><path stroke="#4a3204" d="m129 83.96-.25-.92" vector-effect="non-scaling-stroke"/><path stroke="#7b6008" d="M128.75 83.04c2.48-2.65 1.69-5.88 2.23-9.26q.08-.51-.16-.96-.89-1.7-2.57-2.61" vector-effect="non-scaling-stroke"/><path stroke="#604306" d="m128.25 70.21-.29-1.21" vector-effect="non-scaling-stroke"/><path stroke="#7f8080" d="M127.96 69q4.61-7.24 1.9-15.8" vector-effect="non-scaling-stroke"/><path stroke="#404142" d="M129.86 53.2c-3.09-16.44-23.13-12.24-22.28 3.19.11 1.99.93 3.16 1.88 4.86" vector-effect="non-scaling-stroke"/><path stroke="#7f8080" d="m109.46 61.25 2.04 2.21" vector-effect="non-scaling-stroke"/><path stroke="#7b6008" d="M111.5 63.46q-6.79-2.97-14.04-1.46" vector-effect="non-scaling-stroke"/><path stroke="#604306" d="M97.46 62q-1.22.33-2-.5" vector-effect="non-scaling-stroke"/><path stroke="#7f8080" d="M95.46 61.5q2.6-4.88.25-10" vector-effect="non-scaling-stroke"/><path stroke="#404142" d="M95.71 51.5q-.51-3.38-4.12-5.86c-6.69-4.59-11.13 3.03-11.12 8.75" vector-effect="non-scaling-stroke"/><path stroke="#7f8080" d="M80.47 54.39q-.81 8.82 3.07 16.36" vector-effect="non-scaling-stroke"/><path stroke="#604306" d="M83.54 70.75c-1.03 4.02-5.59 4.52-2.7 9.82" vector-effect="non-scaling-stroke"/><path stroke="#4a3204" d="m80.84 80.57 3.05 4.52" vector-effect="non-scaling-stroke"/><path stroke="#606060" d="M83.89 85.09q-1.99 5.41-.85 10.66" vector-effect="non-scaling-stroke"/><path stroke="#7f8080" d="m83.04 95.75-9.33 15.75" vector-effect="non-scaling-stroke"/><path stroke="#606060" d="M73.71 111.5q-3.13 6.71-3.6 14.14-.04.52-.34.96-1.45 2.05-2.16 5.13" vector-effect="non-scaling-stroke"/><path stroke="#7f8080" d="M67.61 131.73q-2.6 3.74-6.42 11.71-7.61 15.87-6.48 32.67" vector-effect="non-scaling-stroke"/><path stroke="#404142" d="M54.71 176.11q-4.19-.83-4.75-5.86c-.69-6.27-2.11-11.34-.37-16.74 2.31-7.18 6.28-18.71 11.74-24q.58-.57-.18-.28c-5.25 1.99-10.89 19.03-12.47 24.34-1.07 3.63-1.01 7.19-.97 10.93" vector-effect="non-scaling-stroke"/><path stroke="#242425" d="m47.71 164.5-2.91 2.99q-.38.39-.08.84 1.49 2.3 3.99 3.42" vector-effect="non-scaling-stroke"/><path stroke="#404142" d="M48.71 171.75q5.9 8.63 14.07 15.11.32.25.66.03.36-.23.81-.18" vector-effect="non-scaling-stroke"/><path stroke="#7f8080" d="M64.25 186.71q8.17 6.61 16.36 13.16c7.41 5.94 6.11 14.68-4.28 15.84a.41.41 0 0 0-.31.61c3 5.37 7.44 11.64 14 12.79q28.43 4.94 48.98-14.65" vector-effect="non-scaling-stroke"/><path stroke="#606060" d="M139 214.46q4.02-2.91 6.46-7.21" vector-effect="non-scaling-stroke"/><path stroke="#4a3204" d="M145.46 207.25q-.44 5.73-3.02 18.69-1.4 7.01-.73 17.56" vector-effect="non-scaling-stroke"/><path stroke="#342204" d="M82.57 246.87q5.9-9.02.22-18.37" vector-effect="non-scaling-stroke"/><path stroke="#604306" d="m82.79 228.5-4.5-6.75" vector-effect="non-scaling-stroke"/><path stroke="#7b6008" d="M78.29 221.75Q69.44 208 61 193.97c-3-4.97-10.79-15.94-16.7-17.18q-3.7-.78-7.09 1.96" vector-effect="non-scaling-stroke"/><path stroke="#604306" d="m37.21 178.75-1.41.71" vector-effect="non-scaling-stroke"/><path stroke="#c48f08" d="M193.25 233.29q-.54-1.32-1.53-.58-2.5 1.86-4.95 2.77c-4.88 1.82-7.83 3.31-11.8 5.36-2.13 1.09-4.41 1.16-6.82 2.13-6.93 2.78-14.92.93-17.46-6.72-2.09-6.32-1.39-13.11-1.97-19.71-.35-4.09.68-8.34.05-12.74q-.07-.47-.5-.69c-.36-.18-.33-3.26-.42-3.78q-.08-.49-.58-.57-.8-.12-1.48.24" vector-effect="non-scaling-stroke"/><path stroke="#dabd64" d="m145.79 199-.33-7" vector-effect="non-scaling-stroke"/><path stroke="#daa00a" d="M78.29 221.75q-.06.81-.74 1.08-.48.19-.43.7.99 9.15-4.66 16.01c-1.02 1.24-2.43 1.42-3.43 2.9q-.27.4-.71.59-3.08 1.28-5.06.96-5.26-.86-16.03-4.18c-3.3-1.02-8.62-.81-12.86-2.63-1.82-.78-4.77-.42-6.19-.66q-3.21-.56-6.45-.91-.49-.05-.88-.35-1.25-.97-3.05-.7-.65.1-.79-.55-.24-1.14-1.38-1.18-.56-.02-.99-.37c-1.92-1.58-2.52-3.37-1.55-5.84q3.85-9.8.63-20.86-1.45-4.97.61-9.93c2.16-5.2 8.4-2.67 12.19-2.81 5.76-.22 7.95-4.8 10.25-10.1.62-1.42.55-2.69.44-4.17" vector-effect="non-scaling-stroke"/><path stroke="#a98f60" d="M129 83.96c-12.51 3.07-21.46 18.9-35.84 9.59q-1.36-.88-4.52-4.29-2.14-2.32-4.75-4.17" vector-effect="non-scaling-stroke"/><path stroke="#dec082" d="M95.46 61.5q-.62 1.24-1.92 1.25" vector-effect="non-scaling-stroke"/><path stroke="#7f8080" d="M93.54 62.75q.48-4.86-1.95-8.29c-5.79-8.17-12.51 5.76-4.05 13.04" vector-effect="non-scaling-stroke"/><path stroke="#dec082" d="M87.54 67.5q-1.57 2.18-4 3.25" vector-effect="non-scaling-stroke"/><path stroke="#daa00a" d="M97.46 62q-1.36.79-1.24 2.32.04.51-.3.88-1.11 1.2-2.75 1.68-.5.14-.83.55-5.18 6.44-7.31 14.55" vector-effect="non-scaling-stroke"/><path stroke="#a97205" d="M85.03 81.98q-1.71-1.53-4.19-1.41" vector-effect="non-scaling-stroke"/><path stroke="#daa00a" d="M120.75 67.54q2.93 3.3 7.5 2.67" vector-effect="non-scaling-stroke"/><path stroke="#c48f08" d="m128.75 83.04-.8-.17q-.45-.09-.86.12-7.67 4.11-20.54 9.3-9.4 3.79-13.41-4.28-.29-.58.36-.55c9.11.47 15.99-1.52 23.64-6.63q4.44-2.97 9.18-5.33a.48.47 48.1 0 0 .04-.83q-.5-.31-.98 0c-10.39 6.68-18.64 12.48-31.8 11.49q-4.39-.34-8.55-4.18" vector-effect="non-scaling-stroke"/><path stroke="#bebebe" d="M129.86 53.2q-7.1-7.37-17.21-4.14c-5.26 1.68-3.29 8.12-3.19 12.19" vector-effect="non-scaling-stroke"/><path stroke="#a98f60" d="m145.79 199-.33 8.25" vector-effect="non-scaling-stroke"/><path stroke="#9e8229" d="m158.54 182.25-.54-.71" vector-effect="non-scaling-stroke"/><path stroke="#bebebe" d="M95.71 51.5q-.99-1.34-1.46-1.5-8.93-3.1-13.78 4.39" vector-effect="non-scaling-stroke"/><path stroke="#dec082" d="M127.96 69q-3.58.31-6.46-1.71" vector-effect="non-scaling-stroke"/><path stroke="#7f8080" d="M121.5 67.29c10.39-7.99-.69-21.8-6.66-13.46q-3.41 4.78-.88 10.67" vector-effect="non-scaling-stroke"/><path stroke="#f9dd84" d="m113.96 64.5-2.46-1.04" vector-effect="non-scaling-stroke"/><path stroke="#636363" d="m48.71 171.75-1-7.25" vector-effect="non-scaling-stroke"/><path stroke="#dedddc" d="M133.3 93.9q-3.58-3.29-8.04-2.51-1.84.32-4.04 2.28c-4.26 3.8-9.04 6.05-13.55 9.56-3.82 2.98-8.63 5.32-13.27 3.5-4.4-1.74-6.54-7.55-7.72-11.85q-.15-.55-.67-.33l-2.97 1.2" vector-effect="non-scaling-stroke"/><path stroke="#926205" d="M82.79 228.5q-.63 2.65-.45 5.36c.15 2.29-.6 3.41-1.56 5.28-1.16 2.24-3.14 3.38-4.86 5.35-5.08 5.83-15.76 4.72-22.52 3.08-2.6-.64-5.16-2.33-8.85-1.94q-.5.05-.87-.27c-2.42-2.05-11.26-2.87-13.56-3.08q-.03 0-.03-.03-.06-.15-.08-.29-.03-.35-.38-.35l-5.13-.07" vector-effect="non-scaling-stroke"/><path stroke="#f9dd84" d="M156.21 180.5c-11.52-.16-10.67.92-10.75 11.5" vector-effect="non-scaling-stroke"/><path stroke="#dedddc" d="M145.46 192c-8.01.01-7.59 8.7-5.99 14.28q.74 2.58-.47 8.18" vector-effect="non-scaling-stroke"/><path stroke="#bebebe" d="M64.25 186.71q-3.81-3.4-7.63-6.8c-1.26-1.13-1.35-2.33-1.91-3.8" vector-effect="non-scaling-stroke"/><path stroke="#dedddc" d="M67.61 131.73q7.16-5.56 15.35-9.07a.34.33-38.2 0 0 .07-.58q-2.48-1.83-5.46-1.35-.58.1-.95-.36l-2.33-2.92q-.32-.4-.12-.86 1.2-2.78-.46-5.09" vector-effect="non-scaling-stroke"/><path stroke="#604306" d="M93.54 62.75q-2.61 2.86-6 4.75M121.5 67.29l-.75.25" vector-effect="non-scaling-stroke"/><path stroke="#7b6008" d="M120.75 67.54q-3.77-.73-6.79-3.04" vector-effect="non-scaling-stroke"/><path stroke="#242425" d="M130.8 44.58c-.95-2.2-3.1-5.4-5.79-5.31a.67.67 0 0 0-.35 1.22c.89.61 5.33 4.79 5.85 4.66q.49-.11.29-.57M96.94 45.41c-.81-2.73-4.33-5.75-7.26-5.61q-1.28.06-.15.66 3.82 2.04 6.71 5.34a.41.41 0 0 0 .7-.39M104.55 56.47q-1.28-.99-2.79-.46a.83.83 0 0 0 .06 1.59l3.82 1a.58.57 82.5 0 0 .64-.84q-.45-.8-1.17-1.01-.31-.09-.56-.28" vector-effect="non-scaling-stroke"/><path stroke="#404142" d="M148.62 88.33c-1.95-4.24-5.43-5.03-8.93-7.17a.55.55 0 0 0-.81.31c-.6 1.96 2.94 7.68 3.96 9.66a1.98 1.97-28.1 0 0 2.72.82q1.84-1.02 3.01-2.84.24-.38.05-.78" vector-effect="non-scaling-stroke"/><path stroke="#242425" d="M187.71 180.18c-1.5-3.76-12.55-6.57-16.09-5.86a.27.27 0 0 0 .03.54q4.68.34 8.57 2.19c4.92 2.33 1.77 5.47.46 8.79a.38.38 0 0 0 .61.41l3.12-2.99q.34-.33.8-.46 1.48-.43 2.35-1.58.37-.48.15-1.04" vector-effect="non-scaling-stroke"/><path stroke="#404142" d="M123.63 58.05c.11-1.77-1.49-5.68-4-4.52q-.56.26-.15.73l3.5 4.01q.59.67.65-.22M90.88 60.65c.61-1.76.23-7.54-3.22-6.26a.43.43 0 0 0-.18.68q2.09 2.44 2.81 5.55.24 1.01.59.03" vector-effect="non-scaling-stroke"/><path stroke="#c48f08" d="m104.72 65.17 3.36 1.18q.97.34.95-.69c-.05-1.96-3.19-1.53-4.29-1.21a.38.38 0 0 0-.02.72" vector-effect="non-scaling-stroke"/><path stroke="#dedddc" d="M130.06 119.94q-3.5-.81-7.04.25c-.84.26-4.95.34-4.99 1.49q-.01.55.52.71c7.66 2.25 17.26 4.19 24.89 10.41 2.29 1.86 3.8 3.44 6.65 4.97a.95.95 0 0 0 1.25-1.35l-10.54-16.78q-.3-.48-.85-.61l-2.72-.68q-.56-.14-1.1.08-4.54 1.86-6.07 1.51" vector-effect="non-scaling-stroke"/><path stroke="#a97205" d="M69.27 246.5q3.74-.86 6.03-3.1 1.28-1.24-.17-.2-2.77 2-5.97 2.88a.22.22 0 0 0 .11.42" vector-effect="non-scaling-stroke"/></g><path fill="#010204" d="M189.83 182.86q-2.8 3.26-5.22 6.77-2.47 3.57-4.61 5c-7.67 5.11-22.3 4.89-21.68-8.08q.1-2.11.22-4.3 2.57-6.26 9.06-7.58.5-.1.69-.57 4.21-10.4 4.94-21.49c.55-8.38-2.77-13.28-7.02-19.91-1.78-2.78-8.63-9.37-12.04-8.93a.36.36 0 0 0-.12.68c19.21 10.32 22.29 30.2 13.24 48.71a1.28 1.24-85 0 1-.74.64q-5.87 1.96-8.55 7.74-1.22-.1-1.79-1.04 1.95-8.44 1.7-17.04c-.47-15.84-3.04-30.63-14.29-42.65q-.35-.38-.42-.88-2.1-14.23-9.9-26.03c-.9-2.87-1.96-8.22-4.3-9.94l-.25-.92c2.48-2.65 1.69-5.88 2.23-9.26q.08-.51-.16-.96-.89-1.7-2.57-2.61l-.29-1.21q4.61-7.24 1.9-15.8c-3.09-16.44-23.13-12.24-22.28 3.19.11 1.99.93 3.16 1.88 4.86l2.04 2.21q-6.79-2.97-14.04-1.46-1.22.33-2-.5 2.6-4.88.25-10-.51-3.38-4.12-5.86c-6.69-4.59-11.13 3.03-11.12 8.75q-.81 8.82 3.07 16.36c-1.03 4.02-5.59 4.52-2.7 9.82l3.05 4.52q-1.99 5.41-.85 10.66l-9.33 15.75q-3.13 6.71-3.6 14.14-.04.52-.34.96-1.45 2.05-2.16 5.13-2.6 3.74-6.42 11.71-7.61 15.87-6.48 32.67-4.19-.83-4.75-5.86c-.69-6.27-2.11-11.34-.37-16.74 2.31-7.18 6.28-18.71 11.74-24q.58-.57-.18-.28c-5.25 1.99-10.89 19.03-12.47 24.34-1.07 3.63-1.01 7.19-.97 10.93l-2.91 2.99q-.38.39-.08.84 1.49 2.3 3.99 3.42 5.9 8.63 14.07 15.11.32.25.66.03.36-.23.81-.18 8.17 6.61 16.36 13.16c7.41 5.94 6.11 14.68-4.28 15.84a.41.41 0 0 0-.31.61c3 5.37 7.44 11.64 14 12.79q28.43 4.94 48.98-14.65 4.02-2.91 6.46-7.21-.44 5.73-3.02 18.69-1.4 7.01-.73 17.56-2.46.38-4.68-.67-.45-.21-.95-.15c-3.73.49-6.7-.98-10.02-.92q-13.31.26-26.61.32-1.32.01-3.95.52c-3.25.63-7.02-1.13-8.93 2.68q-.22.45-.7.59l-3.3 1q5.9-9.02.22-18.37l-4.5-6.75Q69.44 208 61 193.97c-3-4.97-10.79-15.94-16.7-17.18q-3.7-.78-7.09 1.96l-1.41.71c-3.25-7.32-1.84-12.96 2.37-19.89q8.09-13.31 11.88-28.46c3.94-15.71 19.08-24.85 25.44-39.42 1.81-4.14.98-10.25 1.01-14.79.01-1.56-1.01-2.56-1-4 .01-2.43.59-12.73-.46-14.23q-.29-.41-.29-.92c0-9.22-.96-18.84 1.83-27.75 5.7-18.16 19.96-25.11 38.69-22.29 9.4 1.41 20.24 7.36 25.72 15.26 7.42 10.7 8.56 23.56 8.53 37.26 0 3.39.58 6.62.81 10.04.77 11.21 8.5 23.07 14.23 32.46 5.26 8.62 13.48 14.47 17.69 23.84q5.89 13.11 9.2 27.09c.37 1.57.22 3.46.64 5.32 1.65 7.34.14 16.94-2.26 23.88ZM130.8 44.58c-.95-2.2-3.1-5.4-5.79-5.31a.67.67 0 0 0-.35 1.22c.89.61 5.33 4.79 5.85 4.66q.49-.11.29-.57Zm-33.86.83c-.81-2.73-4.33-5.75-7.26-5.61q-1.28.06-.15.66 3.82 2.04 6.71 5.34a.41.41 0 0 0 .7-.39Zm7.61 11.06q-1.28-.99-2.79-.46a.83.83 0 0 0 .06 1.59l3.82 1a.58.57 82.5 0 0 .64-.84q-.45-.8-1.17-1.01-.31-.09-.56-.28Zm44.07 31.86c-1.95-4.24-5.43-5.03-8.93-7.17a.55.55 0 0 0-.81.31c-.6 1.96 2.94 7.68 3.96 9.66a1.98 1.97-28.1 0 0 2.72.82q1.84-1.02 3.01-2.84.24-.38.05-.78Zm39.09 91.85c-1.5-3.76-12.55-6.57-16.09-5.86a.27.27 0 0 0 .03.54q4.68.34 8.57 2.19c4.92 2.33 1.77 5.47.46 8.79a.38.38 0 0 0 .61.41l3.12-2.99q.34-.33.8-.46 1.48-.43 2.35-1.58.37-.48.15-1.04Z"/><path fill="#464646" d="M125.01 39.27c2.69-.09 4.84 3.11 5.79 5.31q.2.46-.29.57c-.52.13-4.96-4.05-5.85-4.66a.67.67 0 0 1 .35-1.22ZM89.68 39.8c2.93-.14 6.45 2.88 7.26 5.61a.41.41 0 0 1-.7.39q-2.89-3.3-6.71-5.34-1.13-.6.15-.66Z"/><path fill="#7f7f7f" d="M129.86 53.2q-7.1-7.37-17.21-4.14c-5.26 1.68-3.29 8.12-3.19 12.19-.95-1.7-1.77-2.87-1.88-4.86-.85-15.43 19.19-19.63 22.28-3.19ZM95.71 51.5q-.99-1.34-1.46-1.5-8.93-3.1-13.78 4.39c-.01-5.72 4.43-13.34 11.12-8.75q3.61 2.48 4.12 5.86Z"/><path fill="#fdfdfc" d="M129.86 53.2q2.71 8.56-1.9 15.8-3.58.31-6.46-1.71c10.39-7.99-.69-21.8-6.66-13.46q-3.41 4.78-.88 10.67l-2.46-1.04-2.04-2.21c-.1-4.07-2.07-10.51 3.19-12.19q10.11-3.23 17.21 4.14ZM95.71 51.5q2.35 5.12-.25 10-.62 1.24-1.92 1.25.48-4.86-1.95-8.29c-5.79-8.17-12.51 5.76-4.05 13.04q-1.57 2.18-4 3.25-3.88-7.54-3.07-16.36Q85.32 46.9 94.25 50q.47.16 1.46 1.5Z"/><path fill="#010204" d="m121.5 67.29-.75.25q-3.77-.73-6.79-3.04-2.53-5.89.88-10.67c5.97-8.34 17.05 5.47 6.66 13.46Zm2.13-9.24c.11-1.77-1.49-5.68-4-4.52q-.56.26-.15.73l3.5 4.01q.59.67.65-.22ZM93.54 62.75q-2.61 2.86-6 4.75c-8.46-7.28-1.74-21.21 4.05-13.04q2.43 3.43 1.95 8.29Zm-2.66-2.1c.61-1.76.23-7.54-3.22-6.26a.43.43 0 0 0-.18.68q2.09 2.44 2.81 5.55.24 1.01.59.03Z"/><path fill="#7f7f7f" d="M119.63 53.53c2.51-1.16 4.11 2.75 4 4.52q-.06.89-.65.22l-3.5-4.01q-.41-.47.15-.73ZM87.66 54.39c3.45-1.28 3.83 4.5 3.22 6.26q-.35.98-.59-.03-.72-3.11-2.81-5.55a.43.43 0 0 1 .18-.68Z"/><path fill="#464646" d="M105.11 56.75q.72.21 1.17 1.01a.58.57 82.5 0 1-.64.84l-3.82-1a.83.83 0 0 1-.06-1.59q1.51-.53 2.79.46.25.19.56.28Z"/><path fill="#be8307" d="M95.46 61.5q.78.83 2 .5-1.36.79-1.24 2.32.04.51-.3.88-1.11 1.2-2.75 1.68-.5.14-.83.55-5.18 6.44-7.31 14.55-1.71-1.53-4.19-1.41c-2.89-5.3 1.67-5.8 2.7-9.82q2.43-1.07 4-3.25 3.39-1.89 6-4.75 1.3-.01 1.92-1.25Z"/><path fill="#f5bd0c" d="m111.5 63.46 2.46 1.04q3.02 2.31 6.79 3.04 2.93 3.3 7.5 2.67 1.68.91 2.57 2.61.24.45.16.96c-.54 3.38.25 6.61-2.23 9.26l-.8-.17q-.45-.09-.86.12-7.67 4.11-20.54 9.3-9.4 3.79-13.41-4.28-.29-.58.36-.55c9.11.47 15.99-1.52 23.64-6.63q4.44-2.97 9.18-5.33a.48.47 48.1 0 0 .04-.83q-.5-.31-.98 0c-10.39 6.68-18.64 12.48-31.8 11.49q-4.39-.34-8.55-4.18 2.13-8.11 7.31-14.55.33-.41.83-.55 1.64-.48 2.75-1.68.34-.37.3-.88-.12-1.53 1.24-2.32 7.25-1.51 14.04 1.46Zm-6.78 1.71 3.36 1.18q.97.34.95-.69c-.05-1.96-3.19-1.53-4.29-1.21a.38.38 0 0 0-.02.72Z"/><path fill="#936103" d="M104.72 65.17a.38.38 0 0 1 .02-.72c1.1-.32 4.24-.75 4.29 1.21q.02 1.03-.95.69l-3.36-1.18Z"/><path fill="#be8307" d="M121.5 67.29q2.88 2.02 6.46 1.71l.29 1.21q-4.57.63-7.5-2.67l.75-.25Z"/><path fill="#936103" d="m128.75 83.04.25.92c-12.51 3.07-21.46 18.9-35.84 9.59q-1.36-.88-4.52-4.29-2.14-2.32-4.75-4.17l-3.05-4.52q2.48-.12 4.19 1.41 4.16 3.84 8.55 4.18c13.16.99 21.41-4.81 31.8-11.49q.48-.31.98 0a.48.47 48.1 0 1-.04.83q-4.74 2.36-9.18 5.33c-7.65 5.11-14.53 7.1-23.64 6.63q-.65-.03-.36.55 4.01 8.07 13.41 4.28 12.87-5.19 20.54-9.3.41-.21.86-.12l.8.17Z"/><path fill="#7f7f7f" d="M139.69 81.16c3.5 2.14 6.98 2.93 8.93 7.17q.19.4-.05.78-1.17 1.82-3.01 2.84a1.98 1.97-28.1 0 1-2.72-.82c-1.02-1.98-4.56-7.7-3.96-9.66a.55.55 0 0 1 .81-.31Z"/><path fill="#bebdbc" d="M129 83.96c2.34 1.72 3.4 7.07 4.3 9.94q-3.58-3.29-8.04-2.51-1.84.32-4.04 2.28c-4.26 3.8-9.04 6.05-13.55 9.56-3.82 2.98-8.63 5.32-13.27 3.5-4.4-1.74-6.54-7.55-7.72-11.85q-.15-.55-.67-.33l-2.97 1.2q-1.14-5.25.85-10.66 2.61 1.85 4.75 4.17 3.16 3.41 4.52 4.29c14.38 9.31 23.33-6.52 35.84-9.59Z"/><path fill="#fdfdfc" d="M133.3 93.9q7.8 11.8 9.9 26.03.07.5.42.88c11.25 12.02 13.82 26.81 14.29 42.65q.25 8.6-1.7 17.04c-11.52-.16-10.67.92-10.75 11.5-8.01.01-7.59 8.7-5.99 14.28q.74 2.58-.47 8.18-20.55 19.59-48.98 14.65c-6.56-1.15-11-7.42-14-12.79a.41.41 0 0 1 .31-.61c10.39-1.16 11.69-9.9 4.28-15.84q-8.19-6.55-16.36-13.16-3.81-3.4-7.63-6.8c-1.26-1.13-1.35-2.33-1.91-3.8q-1.13-16.8 6.48-32.67 3.82-7.97 6.42-11.71 7.16-5.56 15.35-9.07a.34.33-38.2 0 0 .07-.58q-2.48-1.83-5.46-1.35-.58.1-.95-.36l-2.33-2.92q-.32-.4-.12-.86 1.2-2.78-.46-5.09l9.33-15.75 2.97-1.2q.52-.22.67.33c1.18 4.3 3.32 10.11 7.72 11.85 4.64 1.82 9.45-.52 13.27-3.5 4.51-3.51 9.29-5.76 13.55-9.56q2.2-1.96 4.04-2.28 4.46-.78 8.04 2.51Zm-3.24 26.04q-3.5-.81-7.04.25c-.84.26-4.95.34-4.99 1.49q-.01.55.52.71c7.66 2.25 17.26 4.19 24.89 10.41 2.29 1.86 3.8 3.44 6.65 4.97a.95.95 0 0 0 1.25-1.35l-10.54-16.78q-.3-.48-.85-.61l-2.72-.68q-.56-.14-1.1.08-4.54 1.86-6.07 1.51Z"/><path fill="#bebdbc" d="M73.71 111.5q1.66 2.31.46 5.09-.2.46.12.86l2.33 2.92q.37.46.95.36 2.98-.48 5.46 1.35a.34.33-38.2 0 1-.07.58q-8.19 3.51-15.35 9.07.71-3.08 2.16-5.13.3-.44.34-.96.47-7.43 3.6-14.14ZM130.06 119.94q1.53.35 6.07-1.51.54-.22 1.1-.08l2.72.68q.55.13.85.61l10.54 16.78a.95.95 0 0 1-1.25 1.35c-2.85-1.53-4.36-3.11-6.65-4.97-7.63-6.22-17.23-8.16-24.89-10.41q-.53-.16-.52-.71c.04-1.15 4.15-1.23 4.99-1.49q3.54-1.06 7.04-.25Z"/><path fill="#464646" d="m158.54 182.25-.54-.71q2.68-5.78 8.55-7.74a1.28 1.24-85 0 0 .74-.64c9.05-18.51 5.97-38.39-13.24-48.71a.36.36 0 0 1 .12-.68c3.41-.44 10.26 6.15 12.04 8.93 4.25 6.63 7.57 11.53 7.02 19.91q-.73 11.09-4.94 21.49-.19.47-.69.57-6.49 1.32-9.06 7.58Z"/><path fill="#7f7f7f" d="M54.71 176.11c.56 1.47.65 2.67 1.91 3.8q3.82 3.4 7.63 6.8-.45-.05-.81.18-.34.22-.66-.03-8.17-6.48-14.07-15.11l-1-7.25c-.04-3.74-.1-7.3.97-10.93 1.58-5.31 7.22-22.35 12.47-24.34q.76-.29.18.28c-5.46 5.29-9.43 16.82-11.74 24-1.74 5.4-.32 10.47.37 16.74q.56 5.03 4.75 5.86Z"/><path fill="#464646" d="m47.71 164.5 1 7.25q-2.5-1.12-3.99-3.42-.3-.45.08-.84l2.91-2.99ZM171.62 174.32c3.54-.71 14.59 2.1 16.09 5.86q.22.56-.15 1.04-.87 1.15-2.35 1.58-.46.13-.8.46l-3.12 2.99a.38.38 0 0 1-.61-.41c1.31-3.32 4.46-6.46-.46-8.79q-3.89-1.85-8.57-2.19a.27.27 0 0 1-.03-.54Z"/><path fill="#f5bd0c" d="M78.29 221.75q-.06.81-.74 1.08-.48.19-.43.7.99 9.15-4.66 16.01c-1.02 1.24-2.43 1.42-3.43 2.9q-.27.4-.71.59-3.08 1.28-5.06.96-5.26-.86-16.03-4.18c-3.3-1.02-8.62-.81-12.86-2.63-1.82-.78-4.77-.42-6.19-.66q-3.21-.56-6.45-.91-.49-.05-.88-.35-1.25-.97-3.05-.7-.65.1-.79-.55-.24-1.14-1.38-1.18-.56-.02-.99-.37c-1.92-1.58-2.52-3.37-1.55-5.84q3.85-9.8.63-20.86-1.45-4.97.61-9.93c2.16-5.2 8.4-2.67 12.19-2.81 5.76-.22 7.95-4.8 10.25-10.1.62-1.42.55-2.69.44-4.17q3.39-2.74 7.09-1.96C50.21 178.03 58 189 61 193.97q8.44 14.03 17.29 27.78Z"/><path fill="#be8307" d="M37.21 178.75c.11 1.48.18 2.75-.44 4.17-2.3 5.3-4.49 9.88-10.25 10.1-3.79.14-10.03-2.39-12.19 2.81q-2.06 4.96-.61 9.93 3.22 11.06-.63 20.86c-.97 2.47-.37 4.26 1.55 5.84q.43.35.99.37 1.14.04 1.38 1.18.14.65.79.55 1.8-.27 3.05.7.39.3.88.35 3.24.35 6.45.91c1.42.24 4.37-.12 6.19.66 4.24 1.82 9.56 1.61 12.86 2.63q10.77 3.32 16.03 4.18 1.98.32 5.06-.96.44-.19.71-.59c1-1.48 2.41-1.66 3.43-2.9q5.65-6.86 4.66-16.01-.05-.51.43-.7.68-.27.74-1.08l4.5 6.75q-.63 2.65-.45 5.36c.15 2.29-.6 3.41-1.56 5.28-1.16 2.24-3.14 3.38-4.86 5.35-5.08 5.83-15.76 4.72-22.52 3.08-2.6-.64-5.16-2.33-8.85-1.94q-.5.05-.87-.27c-2.42-2.05-11.26-2.87-13.56-3.08q-.03 0-.03-.03-.06-.15-.08-.29-.03-.35-.38-.35l-5.13-.07q-8.87-2.65-11.24-3.05c-11.57-1.94-4.9-12.61-3.03-19.18.72-2.53.52-4.86.52-7.46 0-2.61-1.09-5.31-.68-8.34q.06-.5-.2-.94c-1.47-2.41.17-2.99-.14-5.1-1.14-7.79 10.76-8.25 15.51-7.91 5.49.39 7.72-5.1 10.56-10.1l1.41-.71Zm32.06 67.75q3.74-.86 6.03-3.1 1.28-1.24-.17-.2-2.77 2-5.97 2.88a.22.22 0 0 0 .11.42Z"/><path fill="#f5bd0c" d="M156.21 180.5q.57.94 1.79 1.04l.54.71q-.12 2.19-.22 4.3c-.62 12.97 14.01 13.19 21.68 8.08q2.14-1.43 4.61-5 2.42-3.51 5.22-6.77.81 1.56 2.28 1.87.48.1.75.51 1.83 2.79 2.06 4.08c.45 2.52-.73 6.32 1.04 9.25 3.78 6.27 9.35 11.26 15.8 14.41q.46.22.7.66c5.41 9.52-11.75 16.13-19.21 19.65q-.54-1.32-1.53-.58-2.5 1.86-4.95 2.77c-4.88 1.82-7.83 3.31-11.8 5.36-2.13 1.09-4.41 1.16-6.82 2.13-6.93 2.78-14.92.93-17.46-6.72-2.09-6.32-1.39-13.11-1.97-19.71-.35-4.09.68-8.34.05-12.74q-.07-.47-.5-.69c-.36-.18-.33-3.26-.42-3.78q-.08-.49-.58-.57-.8-.12-1.48.24l-.33-7c.08-10.58-.77-11.66 10.75-11.5Z"/><path fill="#bebdbc" d="m145.46 192 .33 7-.33 8.25q-2.44 4.3-6.46 7.21 1.21-5.6.47-8.18c-1.6-5.58-2.02-14.27 5.99-14.28Z"/><path fill="#936103" d="M193.25 233.29c-3.72 2.34-7.29 4.52-10.63 7.41q-1.22 1.06-3.22 2.45c-3.13 2.18-6.02 6.71-10.09 8.76-8.9 4.5-24.53 3.36-27.6-8.41q-.67-10.55.73-17.56 2.58-12.96 3.02-18.69l.33-8.25q.68-.36 1.48-.24.5.08.58.57c.09.52.06 3.6.42 3.78q.43.22.5.69c.63 4.4-.4 8.65-.05 12.74.58 6.6-.12 13.39 1.97 19.71 2.54 7.65 10.53 9.5 17.46 6.72 2.41-.97 4.69-1.04 6.82-2.13 3.97-2.05 6.92-3.54 11.8-5.36q2.45-.91 4.95-2.77.99-.74 1.53.58Z"/><path fill="#664103" d="M82.79 228.5q5.68 9.35-.22 18.37c-2 1.85-3.74 4.16-6.14 5.35-6.89 3.44-13.38 1.7-20.47-1.27-9.13-3.83-19-6.4-27.21-8.19q-3.16-.7-4.25-1.22l5.13.07q.35 0 .38.35.02.14.08.29 0 .03.03.03c2.3.21 11.14 1.03 13.56 3.08q.37.32.87.27c3.69-.39 6.25 1.3 8.85 1.94 6.76 1.64 17.44 2.75 22.52-3.08 1.72-1.97 3.7-3.11 4.86-5.35.96-1.87 1.71-2.99 1.56-5.28q-.18-2.71.45-5.36Z"/><path fill="#936103" d="M69.27 246.5a.22.22 0 0 1-.11-.42q3.2-.88 5.97-2.88 1.45-1.04.17.2-2.29 2.24-6.03 3.1Z"/></svg>